<mxfile host="app.diagrams.net" modified="2020-03-21T13:05:44.044Z" agent="Mozilla/5.0 (X11; Linux x86_64) AppleWebKit/537.36 (KHTML, like Gecko) Chrome/80.0.3987.149 Safari/537.36" etag="XTKzaPKlORLH2JLmCY0V" version="12.8.8" type="github">
  <diagram id="oQDTAqtAIhEj4QiiSjHc" name="Page-1">
    <mxGraphModel dx="868" dy="534" grid="1" gridSize="10" guides="1" tooltips="1" connect="1" arrows="1" fold="1" page="1" pageScale="1" pageWidth="250" pageHeight="490" math="0" shadow="0">
      <root>
        <mxCell id="0" />
        <mxCell id="1" parent="0" />
        <mxCell id="E8qXKSW293ZqN4_Jq3c3-1" value="" style="rounded=1;whiteSpace=wrap;html=1;arcSize=3;" vertex="1" parent="1">
          <mxGeometry x="109" width="250" height="490" as="geometry" />
        </mxCell>
        <mxCell id="E8qXKSW293ZqN4_Jq3c3-4" value="" style="endArrow=none;html=1;exitX=1;exitY=0.5;exitDx=0;exitDy=0;entryX=0;entryY=0.5;entryDx=0;entryDy=0;" edge="1" parent="1">
          <mxGeometry width="50" height="50" relative="1" as="geometry">
            <mxPoint x="359" y="19" as="sourcePoint" />
            <mxPoint x="109" y="19" as="targetPoint" />
          </mxGeometry>
        </mxCell>
        <mxCell id="E8qXKSW293ZqN4_Jq3c3-5" value="" style="rounded=0;whiteSpace=wrap;html=1;" vertex="1" parent="1">
          <mxGeometry x="109" y="19" width="250" height="31" as="geometry" />
        </mxCell>
        <mxCell id="E8qXKSW293ZqN4_Jq3c3-7" value="" style="rounded=0;whiteSpace=wrap;html=1;" vertex="1" parent="1">
          <mxGeometry x="112" y="19" width="121" height="31" as="geometry" />
        </mxCell>
        <mxCell id="E8qXKSW293ZqN4_Jq3c3-8" value="" style="rounded=0;whiteSpace=wrap;html=1;" vertex="1" parent="1">
          <mxGeometry x="236" y="19" width="121" height="31" as="geometry" />
        </mxCell>
        <mxCell id="E8qXKSW293ZqN4_Jq3c3-9" value="" style="endArrow=none;html=1;entryX=1;entryY=0.5;entryDx=0;entryDy=0;exitX=0;exitY=0.5;exitDx=0;exitDy=0;" edge="1" parent="1">
          <mxGeometry width="50" height="50" relative="1" as="geometry">
            <mxPoint x="109" y="290" as="sourcePoint" />
            <mxPoint x="359" y="290" as="targetPoint" />
          </mxGeometry>
        </mxCell>
        <mxCell id="E8qXKSW293ZqN4_Jq3c3-10" value="" style="whiteSpace=wrap;html=1;aspect=fixed;" vertex="1" parent="1">
          <mxGeometry x="114" y="295" width="60" height="60" as="geometry" />
        </mxCell>
        <mxCell id="E8qXKSW293ZqN4_Jq3c3-11" value="" style="whiteSpace=wrap;html=1;aspect=fixed;" vertex="1" parent="1">
          <mxGeometry x="174" y="295" width="60" height="60" as="geometry" />
        </mxCell>
        <mxCell id="E8qXKSW293ZqN4_Jq3c3-12" value="" style="whiteSpace=wrap;html=1;aspect=fixed;" vertex="1" parent="1">
          <mxGeometry x="234" y="295" width="60" height="60" as="geometry" />
        </mxCell>
        <mxCell id="E8qXKSW293ZqN4_Jq3c3-13" value="" style="whiteSpace=wrap;html=1;aspect=fixed;" vertex="1" parent="1">
          <mxGeometry x="294" y="295" width="60" height="60" as="geometry" />
        </mxCell>
        <mxCell id="E8qXKSW293ZqN4_Jq3c3-14" value="" style="whiteSpace=wrap;html=1;aspect=fixed;" vertex="1" parent="1">
          <mxGeometry x="114" y="360" width="60" height="60" as="geometry" />
        </mxCell>
        <mxCell id="E8qXKSW293ZqN4_Jq3c3-15" value="" style="whiteSpace=wrap;html=1;aspect=fixed;" vertex="1" parent="1">
          <mxGeometry x="174" y="360" width="60" height="60" as="geometry" />
        </mxCell>
        <mxCell id="E8qXKSW293ZqN4_Jq3c3-16" value="" style="whiteSpace=wrap;html=1;aspect=fixed;" vertex="1" parent="1">
          <mxGeometry x="234" y="360" width="60" height="60" as="geometry" />
        </mxCell>
        <mxCell id="E8qXKSW293ZqN4_Jq3c3-17" value="" style="whiteSpace=wrap;html=1;aspect=fixed;" vertex="1" parent="1">
          <mxGeometry x="294" y="360" width="60" height="60" as="geometry" />
        </mxCell>
        <mxCell id="E8qXKSW293ZqN4_Jq3c3-18" value="" style="whiteSpace=wrap;html=1;aspect=fixed;" vertex="1" parent="1">
          <mxGeometry x="114" y="425" width="60" height="60" as="geometry" />
        </mxCell>
        <mxCell id="E8qXKSW293ZqN4_Jq3c3-19" value="" style="whiteSpace=wrap;html=1;aspect=fixed;" vertex="1" parent="1">
          <mxGeometry x="174" y="425" width="60" height="60" as="geometry" />
        </mxCell>
        <mxCell id="E8qXKSW293ZqN4_Jq3c3-20" value="" style="whiteSpace=wrap;html=1;aspect=fixed;" vertex="1" parent="1">
          <mxGeometry x="234" y="425" width="60" height="60" as="geometry" />
        </mxCell>
        <mxCell id="E8qXKSW293ZqN4_Jq3c3-21" value="" style="whiteSpace=wrap;html=1;aspect=fixed;" vertex="1" parent="1">
          <mxGeometry x="294" y="425" width="60" height="60" as="geometry" />
        </mxCell>
      </root>
    </mxGraphModel>
  </diagram>
</mxfile>
